<mxfile host="Electron" modified="2023-09-23T03:36:16.722Z" agent="Mozilla/5.0 (Windows NT 10.0; Win64; x64) AppleWebKit/537.36 (KHTML, like Gecko) draw.io/21.7.5 Chrome/114.0.5735.289 Electron/25.8.1 Safari/537.36" etag="MLZKoKvgterJ8Wb_BFzK" version="21.7.5" type="device">
  <diagram name="Page-1" id="sB8NsVcvZ1vPTsjc8r2R">
    <mxGraphModel dx="1430" dy="825" grid="1" gridSize="10" guides="1" tooltips="1" connect="1" arrows="1" fold="1" page="1" pageScale="1" pageWidth="850" pageHeight="1100" math="0" shadow="0">
      <root>
        <mxCell id="0" />
        <mxCell id="1" parent="0" />
        <mxCell id="vkidkK2bYVWCFtIj-SOr-1" value="Instructor" style="whiteSpace=wrap;html=1;align=center;" vertex="1" parent="1">
          <mxGeometry x="120" y="180" width="100" height="40" as="geometry" />
        </mxCell>
        <mxCell id="vkidkK2bYVWCFtIj-SOr-2" value="Student" style="whiteSpace=wrap;html=1;align=center;" vertex="1" parent="1">
          <mxGeometry x="370" y="750" width="100" height="40" as="geometry" />
        </mxCell>
        <mxCell id="vkidkK2bYVWCFtIj-SOr-3" value="Teaching Team" style="whiteSpace=wrap;html=1;align=center;" vertex="1" parent="1">
          <mxGeometry x="630" y="200" width="100" height="40" as="geometry" />
        </mxCell>
        <mxCell id="vkidkK2bYVWCFtIj-SOr-4" value="Research Team" style="whiteSpace=wrap;html=1;align=center;" vertex="1" parent="1">
          <mxGeometry x="120" y="500" width="100" height="40" as="geometry" />
        </mxCell>
        <mxCell id="vkidkK2bYVWCFtIj-SOr-5" value="Course" style="whiteSpace=wrap;html=1;align=center;" vertex="1" parent="1">
          <mxGeometry x="630" y="440" width="100" height="40" as="geometry" />
        </mxCell>
        <mxCell id="vkidkK2bYVWCFtIj-SOr-6" value="" style="endArrow=none;html=1;rounded=0;" edge="1" parent="1" source="vkidkK2bYVWCFtIj-SOr-1" target="vkidkK2bYVWCFtIj-SOr-9">
          <mxGeometry relative="1" as="geometry">
            <mxPoint x="180" y="310" as="sourcePoint" />
            <mxPoint x="340" y="310" as="targetPoint" />
          </mxGeometry>
        </mxCell>
        <mxCell id="vkidkK2bYVWCFtIj-SOr-16" value="(1,1)" style="edgeLabel;html=1;align=center;verticalAlign=middle;resizable=0;points=[];" vertex="1" connectable="0" parent="vkidkK2bYVWCFtIj-SOr-6">
          <mxGeometry x="-0.1" y="1" relative="1" as="geometry">
            <mxPoint as="offset" />
          </mxGeometry>
        </mxCell>
        <mxCell id="vkidkK2bYVWCFtIj-SOr-9" value="Assigned To" style="shape=rhombus;perimeter=rhombusPerimeter;whiteSpace=wrap;html=1;align=center;" vertex="1" parent="1">
          <mxGeometry x="110" y="320" width="120" height="60" as="geometry" />
        </mxCell>
        <mxCell id="vkidkK2bYVWCFtIj-SOr-10" value="" style="endArrow=none;html=1;rounded=0;" edge="1" parent="1" source="vkidkK2bYVWCFtIj-SOr-9" target="vkidkK2bYVWCFtIj-SOr-3">
          <mxGeometry relative="1" as="geometry">
            <mxPoint x="420" y="220" as="sourcePoint" />
            <mxPoint x="580" y="220" as="targetPoint" />
          </mxGeometry>
        </mxCell>
        <mxCell id="vkidkK2bYVWCFtIj-SOr-15" value="(2 ,N)" style="edgeLabel;html=1;align=center;verticalAlign=middle;resizable=0;points=[];" vertex="1" connectable="0" parent="vkidkK2bYVWCFtIj-SOr-10">
          <mxGeometry x="-0.0357" y="-1" relative="1" as="geometry">
            <mxPoint as="offset" />
          </mxGeometry>
        </mxCell>
        <mxCell id="vkidkK2bYVWCFtIj-SOr-11" value="" style="endArrow=none;html=1;rounded=0;" edge="1" parent="1" source="vkidkK2bYVWCFtIj-SOr-9" target="vkidkK2bYVWCFtIj-SOr-4">
          <mxGeometry relative="1" as="geometry">
            <mxPoint x="350" y="390" as="sourcePoint" />
            <mxPoint x="510" y="390" as="targetPoint" />
          </mxGeometry>
        </mxCell>
        <mxCell id="vkidkK2bYVWCFtIj-SOr-17" value="(1,1)" style="edgeLabel;html=1;align=center;verticalAlign=middle;resizable=0;points=[];" vertex="1" connectable="0" parent="vkidkK2bYVWCFtIj-SOr-11">
          <mxGeometry x="0.0375" y="1" relative="1" as="geometry">
            <mxPoint as="offset" />
          </mxGeometry>
        </mxCell>
        <mxCell id="vkidkK2bYVWCFtIj-SOr-12" value="Teaches" style="shape=rhombus;perimeter=rhombusPerimeter;whiteSpace=wrap;html=1;align=center;" vertex="1" parent="1">
          <mxGeometry x="620" y="310" width="120" height="60" as="geometry" />
        </mxCell>
        <mxCell id="vkidkK2bYVWCFtIj-SOr-13" value="" style="endArrow=none;html=1;rounded=0;" edge="1" parent="1" source="vkidkK2bYVWCFtIj-SOr-3" target="vkidkK2bYVWCFtIj-SOr-12">
          <mxGeometry relative="1" as="geometry">
            <mxPoint x="540" y="470" as="sourcePoint" />
            <mxPoint x="700" y="470" as="targetPoint" />
          </mxGeometry>
        </mxCell>
        <mxCell id="vkidkK2bYVWCFtIj-SOr-20" value="(1,1)" style="edgeLabel;html=1;align=center;verticalAlign=middle;resizable=0;points=[];" vertex="1" connectable="0" parent="vkidkK2bYVWCFtIj-SOr-13">
          <mxGeometry x="0.3231" y="1" relative="1" as="geometry">
            <mxPoint as="offset" />
          </mxGeometry>
        </mxCell>
        <mxCell id="vkidkK2bYVWCFtIj-SOr-14" value="" style="endArrow=none;html=1;rounded=0;" edge="1" parent="1" source="vkidkK2bYVWCFtIj-SOr-12" target="vkidkK2bYVWCFtIj-SOr-5">
          <mxGeometry relative="1" as="geometry">
            <mxPoint x="580" y="330" as="sourcePoint" />
            <mxPoint x="740" y="330" as="targetPoint" />
          </mxGeometry>
        </mxCell>
        <mxCell id="vkidkK2bYVWCFtIj-SOr-21" value="(1,1)" style="edgeLabel;html=1;align=center;verticalAlign=middle;resizable=0;points=[];" vertex="1" connectable="0" parent="vkidkK2bYVWCFtIj-SOr-14">
          <mxGeometry x="0.0615" y="1" relative="1" as="geometry">
            <mxPoint as="offset" />
          </mxGeometry>
        </mxCell>
        <mxCell id="vkidkK2bYVWCFtIj-SOr-18" value="Number of Instructors" style="ellipse;whiteSpace=wrap;html=1;align=center;dashed=1;" vertex="1" parent="1">
          <mxGeometry x="440" y="200" width="100" height="40" as="geometry" />
        </mxCell>
        <mxCell id="vkidkK2bYVWCFtIj-SOr-19" value="" style="endArrow=none;html=1;rounded=0;" edge="1" parent="1" source="vkidkK2bYVWCFtIj-SOr-18" target="vkidkK2bYVWCFtIj-SOr-3">
          <mxGeometry relative="1" as="geometry">
            <mxPoint x="420" y="300" as="sourcePoint" />
            <mxPoint x="580" y="300" as="targetPoint" />
          </mxGeometry>
        </mxCell>
        <mxCell id="vkidkK2bYVWCFtIj-SOr-23" value="" style="endArrow=none;html=1;rounded=0;" edge="1" parent="1" source="vkidkK2bYVWCFtIj-SOr-24" target="vkidkK2bYVWCFtIj-SOr-1">
          <mxGeometry relative="1" as="geometry">
            <mxPoint x="94.43016844659132" y="147.45012031899387" as="sourcePoint" />
            <mxPoint x="340" y="80" as="targetPoint" />
          </mxGeometry>
        </mxCell>
        <mxCell id="vkidkK2bYVWCFtIj-SOr-24" value="Instructor ID" style="ellipse;whiteSpace=wrap;html=1;align=center;fontStyle=4;" vertex="1" parent="1">
          <mxGeometry x="10" y="60" width="100" height="40" as="geometry" />
        </mxCell>
        <mxCell id="vkidkK2bYVWCFtIj-SOr-25" value="Instructor Name" style="ellipse;whiteSpace=wrap;html=1;align=center;" vertex="1" parent="1">
          <mxGeometry x="120" y="80" width="100" height="40" as="geometry" />
        </mxCell>
        <mxCell id="vkidkK2bYVWCFtIj-SOr-26" value="Team ID" style="ellipse;whiteSpace=wrap;html=1;align=center;fontStyle=4;" vertex="1" parent="1">
          <mxGeometry x="510" y="150" width="100" height="40" as="geometry" />
        </mxCell>
        <mxCell id="vkidkK2bYVWCFtIj-SOr-27" value="Project ID" style="ellipse;whiteSpace=wrap;html=1;align=center;fontStyle=4;" vertex="1" parent="1">
          <mxGeometry x="10" y="580" width="100" height="40" as="geometry" />
        </mxCell>
        <mxCell id="vkidkK2bYVWCFtIj-SOr-28" value="" style="endArrow=none;html=1;rounded=0;" edge="1" parent="1" source="vkidkK2bYVWCFtIj-SOr-27" target="vkidkK2bYVWCFtIj-SOr-4">
          <mxGeometry relative="1" as="geometry">
            <mxPoint x="220" y="610" as="sourcePoint" />
            <mxPoint x="380" y="610" as="targetPoint" />
          </mxGeometry>
        </mxCell>
        <mxCell id="vkidkK2bYVWCFtIj-SOr-29" value="" style="endArrow=none;html=1;rounded=0;" edge="1" parent="1" source="vkidkK2bYVWCFtIj-SOr-26" target="vkidkK2bYVWCFtIj-SOr-3">
          <mxGeometry relative="1" as="geometry">
            <mxPoint x="420" y="280" as="sourcePoint" />
            <mxPoint x="580" y="280" as="targetPoint" />
          </mxGeometry>
        </mxCell>
        <mxCell id="vkidkK2bYVWCFtIj-SOr-31" value="Course ID" style="ellipse;whiteSpace=wrap;html=1;align=center;fontStyle=4;" vertex="1" parent="1">
          <mxGeometry x="530" y="530" width="100" height="40" as="geometry" />
        </mxCell>
        <mxCell id="vkidkK2bYVWCFtIj-SOr-32" value="" style="endArrow=none;html=1;rounded=0;" edge="1" parent="1" source="vkidkK2bYVWCFtIj-SOr-5" target="vkidkK2bYVWCFtIj-SOr-31">
          <mxGeometry relative="1" as="geometry">
            <mxPoint x="590" y="610" as="sourcePoint" />
            <mxPoint x="750" y="610" as="targetPoint" />
          </mxGeometry>
        </mxCell>
        <mxCell id="vkidkK2bYVWCFtIj-SOr-33" value="" style="endArrow=none;html=1;rounded=0;" edge="1" parent="1" source="vkidkK2bYVWCFtIj-SOr-25" target="vkidkK2bYVWCFtIj-SOr-1">
          <mxGeometry relative="1" as="geometry">
            <mxPoint x="210" y="120" as="sourcePoint" />
            <mxPoint x="370" y="120" as="targetPoint" />
          </mxGeometry>
        </mxCell>
        <mxCell id="vkidkK2bYVWCFtIj-SOr-34" value="Middle Name" style="ellipse;whiteSpace=wrap;html=1;align=center;" vertex="1" parent="1">
          <mxGeometry x="100" width="100" height="40" as="geometry" />
        </mxCell>
        <mxCell id="vkidkK2bYVWCFtIj-SOr-35" value="" style="endArrow=none;html=1;rounded=0;" edge="1" parent="1" source="vkidkK2bYVWCFtIj-SOr-34" target="vkidkK2bYVWCFtIj-SOr-25">
          <mxGeometry relative="1" as="geometry">
            <mxPoint x="160" y="130" as="sourcePoint" />
            <mxPoint x="320" y="130" as="targetPoint" />
          </mxGeometry>
        </mxCell>
        <mxCell id="vkidkK2bYVWCFtIj-SOr-36" value="Last Name" style="ellipse;whiteSpace=wrap;html=1;align=center;" vertex="1" parent="1">
          <mxGeometry x="200" width="100" height="40" as="geometry" />
        </mxCell>
        <mxCell id="vkidkK2bYVWCFtIj-SOr-37" value="" style="endArrow=none;html=1;rounded=0;" edge="1" source="vkidkK2bYVWCFtIj-SOr-36" parent="1" target="vkidkK2bYVWCFtIj-SOr-25">
          <mxGeometry relative="1" as="geometry">
            <mxPoint x="170" y="140" as="sourcePoint" />
            <mxPoint x="139" y="87" as="targetPoint" />
          </mxGeometry>
        </mxCell>
        <mxCell id="vkidkK2bYVWCFtIj-SOr-38" value="First Name" style="ellipse;whiteSpace=wrap;html=1;align=center;" vertex="1" parent="1">
          <mxGeometry width="100" height="40" as="geometry" />
        </mxCell>
        <mxCell id="vkidkK2bYVWCFtIj-SOr-39" value="" style="endArrow=none;html=1;rounded=0;" edge="1" source="vkidkK2bYVWCFtIj-SOr-38" parent="1" target="vkidkK2bYVWCFtIj-SOr-25">
          <mxGeometry relative="1" as="geometry">
            <mxPoint x="30" y="50" as="sourcePoint" />
            <mxPoint x="100" y="30" as="targetPoint" />
          </mxGeometry>
        </mxCell>
        <mxCell id="vkidkK2bYVWCFtIj-SOr-40" value="Address" style="ellipse;whiteSpace=wrap;html=1;align=center;" vertex="1" parent="1">
          <mxGeometry y="120" width="100" height="40" as="geometry" />
        </mxCell>
        <mxCell id="vkidkK2bYVWCFtIj-SOr-41" value="" style="endArrow=none;html=1;rounded=0;" edge="1" parent="1" source="vkidkK2bYVWCFtIj-SOr-40" target="vkidkK2bYVWCFtIj-SOr-1">
          <mxGeometry relative="1" as="geometry">
            <mxPoint x="180" y="110" as="sourcePoint" />
            <mxPoint x="340" y="110" as="targetPoint" />
          </mxGeometry>
        </mxCell>
        <mxCell id="vkidkK2bYVWCFtIj-SOr-42" value="Sex" style="ellipse;whiteSpace=wrap;html=1;align=center;" vertex="1" parent="1">
          <mxGeometry x="220" y="50" width="100" height="40" as="geometry" />
        </mxCell>
        <mxCell id="vkidkK2bYVWCFtIj-SOr-43" value="Salary" style="ellipse;whiteSpace=wrap;html=1;align=center;" vertex="1" parent="1">
          <mxGeometry x="250" y="100" width="100" height="40" as="geometry" />
        </mxCell>
        <mxCell id="vkidkK2bYVWCFtIj-SOr-44" value="" style="endArrow=none;html=1;rounded=0;" edge="1" parent="1" source="vkidkK2bYVWCFtIj-SOr-1" target="vkidkK2bYVWCFtIj-SOr-42">
          <mxGeometry relative="1" as="geometry">
            <mxPoint x="220" y="200" as="sourcePoint" />
            <mxPoint x="380" y="200" as="targetPoint" />
          </mxGeometry>
        </mxCell>
        <mxCell id="vkidkK2bYVWCFtIj-SOr-45" value="" style="endArrow=none;html=1;rounded=0;" edge="1" parent="1" source="vkidkK2bYVWCFtIj-SOr-1" target="vkidkK2bYVWCFtIj-SOr-43">
          <mxGeometry relative="1" as="geometry">
            <mxPoint x="240" y="190" as="sourcePoint" />
            <mxPoint x="400" y="190" as="targetPoint" />
          </mxGeometry>
        </mxCell>
        <mxCell id="vkidkK2bYVWCFtIj-SOr-46" value="Attends" style="shape=rhombus;perimeter=rhombusPerimeter;whiteSpace=wrap;html=1;align=center;" vertex="1" parent="1">
          <mxGeometry x="360" y="430" width="120" height="60" as="geometry" />
        </mxCell>
        <mxCell id="vkidkK2bYVWCFtIj-SOr-47" value="" style="endArrow=none;html=1;rounded=0;" edge="1" parent="1" source="vkidkK2bYVWCFtIj-SOr-46" target="vkidkK2bYVWCFtIj-SOr-5">
          <mxGeometry relative="1" as="geometry">
            <mxPoint x="580" y="630" as="sourcePoint" />
            <mxPoint x="740" y="630" as="targetPoint" />
          </mxGeometry>
        </mxCell>
        <mxCell id="vkidkK2bYVWCFtIj-SOr-48" value="" style="endArrow=none;html=1;rounded=0;" edge="1" parent="1" source="vkidkK2bYVWCFtIj-SOr-46" target="vkidkK2bYVWCFtIj-SOr-2">
          <mxGeometry relative="1" as="geometry">
            <mxPoint x="330" y="610" as="sourcePoint" />
            <mxPoint x="490" y="610" as="targetPoint" />
          </mxGeometry>
        </mxCell>
        <mxCell id="vkidkK2bYVWCFtIj-SOr-49" value="Attribute" style="ellipse;whiteSpace=wrap;html=1;align=center;" vertex="1" parent="1">
          <mxGeometry x="670" y="510" width="100" height="40" as="geometry" />
        </mxCell>
        <mxCell id="vkidkK2bYVWCFtIj-SOr-50" value="Attribute" style="ellipse;whiteSpace=wrap;html=1;align=center;" vertex="1" parent="1">
          <mxGeometry x="360" y="860" width="100" height="40" as="geometry" />
        </mxCell>
        <mxCell id="vkidkK2bYVWCFtIj-SOr-51" value="Attribute" style="ellipse;whiteSpace=wrap;html=1;align=center;" vertex="1" parent="1">
          <mxGeometry x="260" y="800" width="100" height="40" as="geometry" />
        </mxCell>
        <mxCell id="vkidkK2bYVWCFtIj-SOr-52" value="Attribute" style="ellipse;whiteSpace=wrap;html=1;align=center;" vertex="1" parent="1">
          <mxGeometry x="470" y="810" width="100" height="40" as="geometry" />
        </mxCell>
        <mxCell id="vkidkK2bYVWCFtIj-SOr-53" value="Attribute" style="ellipse;whiteSpace=wrap;html=1;align=center;" vertex="1" parent="1">
          <mxGeometry x="610" y="110" width="100" height="40" as="geometry" />
        </mxCell>
      </root>
    </mxGraphModel>
  </diagram>
</mxfile>
